<svg xmlns="http://www.w3.org/2000/svg" width="160" height="21" viewBox="0 0 160 21" fill="none"><g clip-path="url(#clip0_897_3866)"><path d="M79.2851 6.09098C77.2407 6.09098 75.4764 6.78501 74.0484 8.20183C72.6204 9.61865 71.8919 11.3403 71.8919 13.3975C71.8919 15.4546 72.6204 17.1763 74.0484 18.5931C75.4764 20.0099 77.2407 20.704 79.2851 20.704C81.3295 20.704 83.0938 20.0099 84.5218 18.5931C85.9498 17.1763 86.6783 15.4527 86.6783 13.3975C86.6783 11.3422 85.9498 9.61865 84.5218 8.20183C83.0938 6.78501 81.3566 6.09098 79.2851 6.09098ZM82.3943 16.5379C81.5537 17.3719 80.5179 17.7879 79.2851 17.7879C78.0522 17.7879 77.0165 17.3719 76.1759 16.5379C75.3353 15.7039 74.916 14.6494 74.916 13.3975C74.916 12.1455 75.3353 11.0911 76.1759 10.259C77.0165 9.42501 78.0522 9.00898 79.2851 9.00898C80.5179 9.00898 81.5537 9.42501 82.3943 10.259C83.2349 11.093 83.6542 12.1475 83.6542 13.3975C83.6542 14.6475 83.2349 15.7039 82.3943 16.5379ZM52.5064 12.0516H59.059C59.059 14.2909 57.6909 16.3346 55.5788 17.1207C54.7518 17.4294 53.7991 17.5942 52.7305 17.5942C50.574 17.5942 48.8097 16.9271 47.4667 15.6214C46.1508 14.3158 45.4783 12.6478 45.4783 10.6482C45.4783 8.64854 46.1508 6.98057 47.4667 5.64811C48.7827 4.31564 50.4909 3.64845 52.5353 3.64845C55.0841 3.64845 57.2677 4.87163 58.3035 6.73325L61.0764 5.14963C59.3972 2.34283 56.2049 0.536819 52.5353 0.536819C49.6233 0.536819 47.1865 1.50885 45.1981 3.48166C43.2387 5.42571 42.2571 7.81647 42.2571 10.6214C42.2571 13.4262 43.2368 15.8438 45.1981 17.7898C47.1865 19.7339 49.6793 20.7078 52.7035 20.7078C55.5595 20.7078 57.8841 19.8738 59.6484 18.179C61.4126 16.4842 62.3093 14.289 62.3093 11.6221V9.19111H52.5083V12.0535L52.5064 12.0516ZM67.2349 8.78658V6.45333H64.2107V20.3454H67.2349V13.3438C67.2349 11.927 67.6542 10.8993 68.5237 10.2878C69.3914 9.64933 70.4001 9.37133 71.5479 9.45377V6.20218C69.4474 6.20218 67.9923 7.06301 67.2349 8.78658ZM101.388 16.0375L98.4754 6.45333H95.5904L92.6493 16.0375L89.9324 6.45333H86.7402L91.1363 20.3454H94.1044L97.0455 10.9818L99.9576 20.3454H102.926L107.322 6.45333H104.13L101.386 16.0375H101.388ZM112.342 2.56331L109.318 3.4529V16.0106C109.318 19.6495 111.194 20.9014 115.815 20.3454V17.6498C113.519 17.761 112.342 17.7879 112.342 16.0106V9.34257H115.815V6.45333H112.342V2.56331ZM158.068 2.39651C156.779 1.14649 155.127 0.534902 153.084 0.534902C151.042 0.534902 149.388 1.14649 148.072 2.39651C147.301 3.12889 146.761 3.99163 146.452 4.9905C146.143 3.99355 145.604 3.12889 144.833 2.39651C143.544 1.14649 141.892 0.534902 139.849 0.534902C137.807 0.534902 136.153 1.14649 134.837 2.39651C133.548 3.6197 132.904 5.20331 132.904 7.17612C132.904 9.14893 133.548 10.7326 134.837 11.9826C136.153 13.2058 137.805 13.8154 139.849 13.8154H140.373L135.892 20.3454H139.399L145.588 11.093C145.965 10.5466 146.249 9.95991 146.445 9.33682C146.752 10.3491 147.295 11.2272 148.074 11.9826C149.389 13.2058 151.042 13.8154 153.086 13.8154H153.612L149.131 20.3454H152.638L158.827 11.093C159.612 9.95416 160.004 8.64854 160.004 7.17612C160.004 5.20331 159.36 3.6197 158.072 2.39651H158.068ZM139.847 11.1256C137.48 11.1256 135.759 9.51512 135.759 7.17612C135.759 4.83712 137.48 3.22475 139.847 3.22475C142.215 3.22475 143.905 4.77386 143.905 7.17612C143.905 9.57839 142.215 11.1256 139.847 11.1256ZM153.084 11.1256C150.717 11.1256 148.995 9.51512 148.995 7.17612C148.995 4.83712 150.717 3.22475 153.084 3.22475C155.451 3.22475 157.142 4.77386 157.142 7.17612C157.142 9.57839 155.451 11.1256 153.084 11.1256ZM125.401 6.09098C123.413 6.09098 121.985 6.81377 121.061 8.23059V0L118.037 0.889586V20.3454H121.061V12.899C121.061 10.2034 122.489 8.89778 124.617 8.89778C126.549 8.89778 127.753 10.0366 127.753 12.1206V20.3435H130.777V11.8139C130.777 8.25743 128.62 6.09098 125.401 6.09098Z" fill="#161D1D"/><path d="M14.0425 12.5249C15.3836 11.5778 17.0222 11.0218 18.7903 11.0218C20.5585 11.0218 22.1971 11.5797 23.5382 12.5249C24.7575 13.3857 26.4213 13.2534 27.4802 12.2028L32.9082 6.81737L31.2464 5.17049L26.0425 10.3335C25.6734 10.6997 25.0976 10.7534 24.6647 10.4658L24.6493 10.4562C24.2184 10.1687 24.0522 9.61842 24.2493 9.14295L27.0647 2.40011L24.8947 1.50861L22.0812 8.24761C21.8821 8.725 21.37 8.99532 20.8599 8.89563L20.8406 8.89179C20.3304 8.79018 19.9633 8.3473 19.9633 7.82966V0.534668H17.6135V7.82774C17.6135 8.34347 17.2464 8.78826 16.7362 8.88988L16.7169 8.89371C16.2068 8.99532 15.6947 8.725 15.4957 8.24761L12.6821 1.50861L10.5121 2.40011L13.3275 9.14295C13.5266 9.62033 13.3585 10.1687 12.9275 10.4562L12.9121 10.4658C12.4792 10.7534 11.9014 10.6978 11.5343 10.3335L6.33237 5.1724L4.67053 6.81929L10.0986 12.2047C11.1575 13.2534 12.8213 13.3857 14.0406 12.5268L14.0425 12.5249ZM24.6957 18.0139L36.601 13.1212L35.7024 10.9681L28.9044 13.7615L25.857 15.0134C21.3333 16.8731 16.2512 16.8731 11.7295 15.0134L8.68019 13.7596L1.88406 10.9662L0.985507 13.1192L12.8908 18.012H0V20.3433H37.5826V18.012H24.6957V18.0139Z" fill="#92BFB1"/></g><defs><clipPath id="clip0_897_3866"><rect width="160" height="20.7059" fill="white"/></clipPath></defs></svg>